<?xml version="1.0" encoding="UTF-8"?><svg xmlns="http://www.w3.org/2000/svg" viewBox="0 0 479.6 479.6"><defs><style>.d{fill:#fff;}.e{fill:#9e005d;}</style></defs><g id="a"/><g id="b"><g id="c"><rect class="e" x="58.63" y="58.63" width="362.35" height="362.35" rx="39.64" ry="39.64" transform="translate(239.8 -99.33) rotate(45)"/><path class="d" d="M359.54,243.76c-.12,.16-.24,.33-.36,.5l-59.6-3.76c-1.21-1.91-2.77-3.64-4.67-5.1-8.65-6.61-21.02-4.97-27.63,3.68-.12,.16-.24,.33-.36,.5l-56.09-3.54c-1.23-1.98-2.82-3.78-4.79-5.28-6.34-4.85-14.67-5.25-21.27-1.72l-49.01-37.48c2.02-7.49-.51-15.79-7.06-20.8-8.65-6.61-21.02-4.97-27.63,3.68-6.61,8.65-4.97,21.02,3.68,27.63,6.34,4.85,14.67,5.25,21.27,1.72l49.01,37.48c-2.02,7.49,.51,15.79,7.06,20.8,1.57,1.2,3.25,2.12,5.01,2.78l18.76,55.14c-.93,.83-1.8,1.75-2.58,2.78-6.61,8.65-4.97,21.02,3.68,27.63,8.65,6.61,21.02,4.97,27.63-3.68,6.61-8.65,4.97-21.02-3.68-27.63-3.07-2.35-6.61-3.65-10.19-3.97l-17.44-51.27c2.45-1.29,4.66-3.11,6.46-5.46,1.54-2.02,2.63-4.24,3.29-6.55l50.62,3.19c.92,4.49,3.4,8.68,7.33,11.68,2.65,2.03,5.66,3.28,8.74,3.79l18.43,54.17c-.93,.83-1.8,1.75-2.58,2.78-6.61,8.65-4.97,21.02,3.68,27.63,8.65,6.61,21.02,4.97,27.63-3.68,6.61-8.65,4.97-21.02-3.68-27.63-3.07-2.35-6.61-3.65-10.19-3.97l-18.06-53.08c1.35-1.04,2.59-2.26,3.67-3.68,1.58-2.07,2.69-4.36,3.34-6.72l53.97,3.4c.92,4.49,3.4,8.68,7.33,11.68,8.65,6.61,21.02,4.97,27.63-3.68,6.61-8.65,4.97-21.02-3.68-27.63-8.65-6.61-21.02-4.97-27.63,3.68Z"/></g></g></svg>