<?xml version="1.0" encoding="UTF-8"?><svg xmlns="http://www.w3.org/2000/svg" xmlns:xlink="http://www.w3.org/1999/xlink" viewBox="0 0 2911.61 1574.41"><defs><style>.f{fill:url(#d);}.g{fill:#fff;}.h{opacity:.68;}</style><linearGradient id="d" x1="327.03" y1="878.58" x2="2246.03" y2="878.58" gradientTransform="matrix(1, 0, 0, 1, 0, 0)" gradientUnits="userSpaceOnUse"><stop offset="0" stop-color="#9e005d"/><stop offset="1" stop-color="#930088"/></linearGradient></defs><g id="a"/><g id="b"><g id="c"><g><rect class="f" x="327.03" y="339.08" width="1919" height="1079"/><path d="M2245.53,339.58V1417.58H327.53V339.58h1918m1-1H326.53V1418.58h1920V338.58h0Z"/></g></g><g id="e"><g class="h"><path class="g" d="M216.24,644.29l7.54,15.51-17.71,8.6-22.07-45.42,17.71-8.6,7.54,15.51,26.6-12.92-7.54-15.51,17.74-8.62,22.07,45.42-17.74,8.62-7.54-15.51-26.6,12.92Z"/><path class="g" d="M274.07,579.23l22.07,45.42-17.71,8.6-22.07-45.42,17.71-8.6Z"/><path class="g" d="M327.27,553.47c9.31-4.65,21.08-.63,25.51,8.83,4.68,9.3,.6,21.1-8.83,25.51l-26.06,12.66,5.39,11.09-17.71,8.6-22.07-45.42,43.77-21.26Zm5.79,23.17c1.05-.51,1.78-1.32,2.16-2.43,.4-1.16,.33-2.25-.18-3.3s-1.34-1.81-2.48-2.18c-1.12-.42-2.21-.34-3.26,.16l-21.63,10.51,3.76,7.74,21.63-10.51Z"/><path class="g" d="M381.44,564.03l7.54,15.51-17.71,8.6-22.07-45.42,17.71-8.6,7.54,15.51,26.6-12.92-7.54-15.51,17.74-8.62,22.07,45.42-17.74,8.62-7.54-15.51-26.6,12.92Z"/><path class="g" d="M489.79,500.45l1.61,3.31c8.41,17.14-3.17,28.9-20.22,37.23-17.12,8.27-33.52,10.1-41.8-7.1l-1.61-3.31c-8.42-17.17,3.17-28.9,20.25-37.24,17.1-8.31,33.42-10.05,41.76,7.11Zm-17.18,9.68c-3.49-7.45-10.3-5.81-17.58-2.4-7.22,3.63-12.71,7.97-9.01,15.32l.54,1.12c3.51,7.48,10.32,5.85,17.63,2.42,7.18-3.62,12.68-7.96,8.96-15.34l-.54-1.12Z"/><path class="g" d="M528.6,455.66c9.31-4.65,21.08-.63,25.51,8.83,4.68,9.3,.6,21.1-8.83,25.51l-26.06,12.66,5.39,11.09-17.71,8.6-22.07-45.42,43.77-21.26Zm5.78,23.17c1.05-.51,1.78-1.32,2.16-2.43,.4-1.16,.33-2.25-.18-3.3s-1.34-1.81-2.48-2.18c-1.12-.42-2.21-.34-3.26,.16l-21.63,10.51,3.76,7.74,21.63-10.51Z"/><g><path class="g" d="M647.85,399.87l53.16-25.83,5.65,11.63-35.45,17.22,2.82,5.81,35.45-17.22,5.11,10.51-35.45,17.22,2.82,5.81,35.45-17.22,5.66,11.66-53.16,25.83-22.07-45.42Z"/><path class="g" d="M754.69,347.88l17.74-8.62,22.07,45.42-19.94,9.69-37.88-15.89,13.48,27.75-17.71,8.6-22.07-45.42,24.37-11.84,31.63,14.38-11.69-24.06Z"/><path class="g" d="M823.19,314.68c12.39-6.23,26.74-.25,32.66,12.2,6.09,12.29,1.96,27.33-10.6,33.22l-40.42,19.64-22.07-45.42,40.42-19.64Zm3.68,16.01l-19.4,9.42,8.08,16.63,19.4-9.42c4.6-2.23,5.38-7.25,3.16-11.81s-6.64-7.05-11.24-4.82Z"/><path class="g" d="M850.06,301.63l53.16-25.83,5.65,11.63-35.45,17.22,2.82,5.81,35.45-17.22,5.11,10.51-35.45,17.22,2.82,5.81,35.45-17.22,5.66,11.66-53.16,25.83-22.07-45.42Z"/><path class="g" d="M956.37,249.94c9.31-4.65,21.08-.63,25.51,8.83,1.66,3.41,2.26,6.97,1.78,10.62-.46,3.61-1.84,6.87-4.14,9.7l16.09,7.93-18.86,9.16-13.94-6.93-15.82,7.68,5.39,11.09-17.71,8.6-22.07-45.42,43.77-21.26Zm-19.6,25.94l3.76,7.74,21.6-10.49c1.08-.53,1.81-1.34,2.2-2.45,.4-1.16,.33-2.25-.18-3.3-1.05-2.16-3.61-3.05-5.77-2l-21.6,10.49Z"/><polygon class="g" points="638.12 460.74 575.99 434.78 637.71 404.79 644.71 419.19 622.98 429.75 638.05 460.77 638.12 460.74"/></g></g><g class="h"><path class="g" d="M101.24,948.29l7.54,15.51-17.71,8.6-22.07-45.42,17.71-8.6,7.54,15.51,26.6-12.92-7.54-15.51,17.74-8.62,22.07,45.42-17.74,8.62-7.54-15.51-26.6,12.92Z"/><path class="g" d="M159.07,883.23l22.07,45.42-17.71,8.6-22.07-45.42,17.71-8.6Z"/><path class="g" d="M212.27,857.47c9.31-4.65,21.08-.63,25.51,8.83,4.68,9.3,.6,21.1-8.83,25.51l-26.06,12.66,5.39,11.09-17.71,8.6-22.07-45.42,43.77-21.26Zm5.79,23.17c1.05-.51,1.78-1.32,2.16-2.43,.4-1.16,.33-2.25-.18-3.3s-1.34-1.81-2.48-2.18c-1.12-.42-2.21-.34-3.26,.16l-21.63,10.51,3.76,7.74,21.63-10.51Z"/><path class="g" d="M266.44,868.03l7.54,15.51-17.71,8.6-22.07-45.42,17.71-8.6,7.54,15.51,26.6-12.92-7.54-15.51,17.74-8.62,22.07,45.42-17.74,8.62-7.54-15.51-26.6,12.92Z"/><path class="g" d="M374.79,804.45l1.61,3.31c8.41,17.14-3.17,28.9-20.22,37.23-17.12,8.27-33.52,10.1-41.8-7.1l-1.61-3.31c-8.42-17.17,3.17-28.9,20.25-37.24,17.1-8.31,33.42-10.05,41.76,7.11Zm-17.18,9.68c-3.49-7.45-10.3-5.81-17.58-2.4-7.22,3.63-12.71,7.97-9.01,15.32l.54,1.12c3.51,7.48,10.32,5.85,17.63,2.42,7.18-3.62,12.68-7.96,8.96-15.34l-.54-1.12Z"/><path class="g" d="M413.6,759.66c9.31-4.65,21.08-.63,25.51,8.83,4.68,9.3,.6,21.1-8.83,25.51l-26.06,12.66,5.39,11.09-17.71,8.6-22.07-45.42,43.77-21.26Zm5.78,23.17c1.05-.51,1.78-1.32,2.16-2.43,.4-1.16,.33-2.25-.18-3.3s-1.34-1.81-2.48-2.18c-1.12-.42-2.21-.34-3.26,.16l-21.63,10.51,3.76,7.74,21.63-10.51Z"/><g><path class="g" d="M532.85,703.87l53.16-25.83,5.65,11.63-35.45,17.22,2.82,5.81,35.45-17.22,5.11,10.51-35.45,17.22,2.82,5.81,35.45-17.22,5.66,11.66-53.16,25.83-22.07-45.42Z"/><path class="g" d="M639.69,651.88l17.74-8.62,22.07,45.42-19.94,9.69-37.88-15.89,13.48,27.75-17.71,8.6-22.07-45.42,24.37-11.84,31.63,14.38-11.69-24.06Z"/><path class="g" d="M708.19,618.68c12.39-6.23,26.74-.25,32.66,12.2,6.09,12.29,1.96,27.33-10.6,33.22l-40.42,19.64-22.07-45.42,40.42-19.64Zm3.68,16.01l-19.4,9.42,8.08,16.63,19.4-9.42c4.6-2.23,5.38-7.25,3.16-11.81s-6.64-7.05-11.24-4.82Z"/><path class="g" d="M735.06,605.63l53.16-25.83,5.65,11.63-35.45,17.22,2.82,5.81,35.45-17.22,5.11,10.51-35.45,17.22,2.82,5.81,35.45-17.22,5.66,11.66-53.16,25.83-22.07-45.42Z"/><path class="g" d="M841.37,553.94c9.31-4.65,21.08-.63,25.51,8.83,1.66,3.41,2.26,6.97,1.78,10.62-.46,3.61-1.84,6.87-4.14,9.7l16.09,7.93-18.86,9.16-13.94-6.93-15.82,7.68,5.39,11.09-17.71,8.6-22.07-45.42,43.77-21.26Zm-19.6,25.94l3.76,7.74,21.6-10.49c1.08-.53,1.81-1.34,2.2-2.45,.4-1.16,.33-2.25-.18-3.3-1.05-2.16-3.61-3.05-5.77-2l-21.6,10.49Z"/><polygon class="g" points="523.12 764.74 460.99 738.78 522.71 708.79 529.71 723.19 507.98 733.75 523.05 764.77 523.12 764.74"/></g></g><g class="h"><path class="g" d="M48.24,1222.29l7.54,15.51-17.71,8.6-22.07-45.42,17.71-8.6,7.54,15.51,26.6-12.92-7.54-15.51,17.74-8.62,22.07,45.42-17.74,8.62-7.54-15.51-26.6,12.92Z"/><path class="g" d="M106.07,1157.23l22.07,45.42-17.71,8.6-22.07-45.42,17.71-8.6Z"/><path class="g" d="M159.27,1131.47c9.31-4.65,21.08-.63,25.51,8.83,4.68,9.3,.6,21.1-8.83,25.51l-26.06,12.66,5.39,11.09-17.71,8.6-22.07-45.42,43.77-21.26Zm5.79,23.17c1.05-.51,1.78-1.32,2.16-2.43,.4-1.16,.33-2.25-.18-3.3s-1.34-1.81-2.48-2.18c-1.12-.42-2.21-.34-3.26,.16l-21.63,10.51,3.76,7.74,21.63-10.51Z"/><path class="g" d="M213.44,1142.03l7.54,15.51-17.71,8.6-22.07-45.42,17.71-8.6,7.54,15.51,26.6-12.92-7.54-15.51,17.74-8.62,22.07,45.42-17.74,8.62-7.54-15.51-26.6,12.92Z"/><path class="g" d="M321.79,1078.45l1.61,3.31c8.41,17.14-3.17,28.9-20.22,37.23-17.12,8.27-33.52,10.1-41.8-7.1l-1.61-3.31c-8.42-17.17,3.17-28.9,20.25-37.24,17.1-8.31,33.42-10.05,41.76,7.11Zm-17.18,9.68c-3.49-7.45-10.3-5.81-17.58-2.4-7.22,3.63-12.71,7.97-9.01,15.32l.54,1.12c3.51,7.48,10.32,5.85,17.63,2.42,7.18-3.62,12.68-7.96,8.96-15.34l-.54-1.12Z"/><path class="g" d="M360.6,1033.66c9.31-4.65,21.08-.63,25.51,8.83,4.68,9.3,.6,21.1-8.83,25.51l-26.06,12.66,5.39,11.09-17.71,8.6-22.07-45.42,43.77-21.26Zm5.78,23.17c1.05-.51,1.78-1.32,2.16-2.43,.4-1.16,.33-2.25-.18-3.3s-1.34-1.81-2.48-2.18c-1.12-.42-2.21-.34-3.26,.16l-21.63,10.51,3.76,7.74,21.63-10.51Z"/><g><path class="g" d="M479.85,977.87l53.16-25.83,5.65,11.63-35.45,17.22,2.82,5.81,35.45-17.22,5.11,10.51-35.45,17.22,2.82,5.81,35.45-17.22,5.66,11.66-53.16,25.83-22.07-45.42Z"/><path class="g" d="M586.69,925.88l17.74-8.62,22.07,45.42-19.94,9.69-37.88-15.89,13.48,27.75-17.71,8.6-22.07-45.42,24.37-11.84,31.63,14.38-11.69-24.06Z"/><path class="g" d="M655.19,892.68c12.39-6.23,26.74-.25,32.66,12.2,6.09,12.29,1.96,27.33-10.6,33.22l-40.42,19.64-22.07-45.42,40.42-19.64Zm3.68,16.01l-19.4,9.42,8.08,16.63,19.4-9.42c4.6-2.23,5.38-7.25,3.16-11.81s-6.64-7.05-11.24-4.82Z"/><path class="g" d="M682.06,879.63l53.16-25.83,5.65,11.63-35.45,17.22,2.82,5.81,35.45-17.22,5.11,10.51-35.45,17.22,2.82,5.81,35.45-17.22,5.66,11.66-53.16,25.83-22.07-45.42Z"/><path class="g" d="M788.37,827.94c9.31-4.65,21.08-.63,25.51,8.83,1.66,3.41,2.26,6.97,1.78,10.62-.46,3.61-1.84,6.87-4.14,9.7l16.09,7.93-18.86,9.16-13.94-6.93-15.82,7.68,5.39,11.09-17.71,8.6-22.07-45.42,43.77-21.26Zm-19.6,25.94l3.76,7.74,21.6-10.49c1.08-.53,1.81-1.34,2.2-2.45,.4-1.16,.33-2.25-.18-3.3-1.05-2.16-3.61-3.05-5.77-2l-21.6,10.49Z"/><polygon class="g" points="470.12 1038.74 407.99 1012.78 469.71 982.79 476.71 997.19 454.98 1007.75 470.05 1038.77 470.12 1038.74"/></g></g><g class="h"><path class="g" d="M32.24,1496.29l7.54,15.51-17.71,8.6L0,1474.99l17.71-8.6,7.54,15.51,26.6-12.92-7.54-15.51,17.74-8.62,22.07,45.42-17.74,8.62-7.54-15.51-26.6,12.92Z"/><path class="g" d="M90.07,1431.23l22.07,45.42-17.71,8.6-22.07-45.42,17.71-8.6Z"/><path class="g" d="M143.27,1405.47c9.31-4.65,21.08-.63,25.51,8.83,4.68,9.3,.6,21.1-8.83,25.51l-26.06,12.66,5.39,11.09-17.71,8.6-22.07-45.42,43.77-21.26Zm5.79,23.17c1.05-.51,1.78-1.32,2.16-2.43,.4-1.16,.33-2.25-.18-3.3s-1.34-1.81-2.48-2.18c-1.12-.42-2.21-.34-3.26,.16l-21.63,10.51,3.76,7.74,21.63-10.51Z"/><path class="g" d="M197.44,1416.03l7.54,15.51-17.71,8.6-22.07-45.42,17.71-8.6,7.54,15.51,26.6-12.92-7.54-15.51,17.74-8.62,22.07,45.42-17.74,8.62-7.54-15.51-26.6,12.92Z"/><path class="g" d="M305.79,1352.45l1.61,3.31c8.41,17.14-3.17,28.9-20.22,37.23-17.12,8.27-33.52,10.1-41.8-7.1l-1.61-3.31c-8.42-17.17,3.17-28.9,20.25-37.24,17.1-8.31,33.42-10.05,41.76,7.11Zm-17.18,9.68c-3.49-7.45-10.3-5.81-17.58-2.4-7.22,3.63-12.71,7.97-9.01,15.32l.54,1.12c3.51,7.48,10.32,5.85,17.63,2.42,7.18-3.62,12.68-7.96,8.96-15.34l-.54-1.12Z"/><path class="g" d="M344.6,1307.66c9.31-4.65,21.08-.63,25.51,8.83,4.68,9.3,.6,21.1-8.83,25.51l-26.06,12.66,5.39,11.09-17.71,8.6-22.07-45.42,43.77-21.26Zm5.78,23.17c1.05-.51,1.78-1.32,2.16-2.43,.4-1.16,.33-2.25-.18-3.3s-1.34-1.81-2.48-2.18c-1.12-.42-2.21-.34-3.26,.16l-21.63,10.51,3.76,7.74,21.63-10.51Z"/><g><path class="g" d="M463.85,1251.87l53.16-25.83,5.65,11.63-35.45,17.22,2.82,5.81,35.45-17.22,5.11,10.51-35.45,17.22,2.82,5.81,35.45-17.22,5.66,11.66-53.16,25.83-22.07-45.42Z"/><path class="g" d="M570.69,1199.88l17.74-8.62,22.07,45.42-19.94,9.69-37.88-15.89,13.48,27.75-17.71,8.6-22.07-45.42,24.37-11.84,31.63,14.38-11.69-24.06Z"/><path class="g" d="M639.19,1166.68c12.39-6.23,26.74-.25,32.66,12.2,6.09,12.29,1.96,27.33-10.6,33.22l-40.42,19.64-22.07-45.42,40.42-19.64Zm3.68,16.01l-19.4,9.42,8.08,16.63,19.4-9.42c4.6-2.23,5.38-7.25,3.16-11.81s-6.64-7.05-11.24-4.82Z"/><path class="g" d="M666.06,1153.63l53.16-25.83,5.65,11.63-35.45,17.22,2.82,5.81,35.45-17.22,5.11,10.51-35.45,17.22,2.82,5.81,35.45-17.22,5.66,11.66-53.16,25.83-22.07-45.42Z"/><path class="g" d="M772.37,1101.94c9.31-4.65,21.08-.63,25.51,8.83,1.66,3.41,2.26,6.97,1.78,10.62-.46,3.61-1.84,6.87-4.14,9.7l16.09,7.93-18.86,9.16-13.94-6.93-15.82,7.68,5.39,11.09-17.71,8.6-22.07-45.42,43.77-21.26Zm-19.6,25.94l3.76,7.74,21.6-10.49c1.08-.53,1.81-1.34,2.2-2.45,.4-1.16,.33-2.25-.18-3.3-1.05-2.16-3.61-3.05-5.77-2l-21.6,10.49Z"/><polygon class="g" points="454.12 1312.74 391.99 1286.78 453.71 1256.79 460.71 1271.19 438.98 1281.75 454.05 1312.77 454.12 1312.74"/></g></g><g class="h"><path class="g" d="M485.24,1543.29l7.54,15.51-17.71,8.6-22.07-45.42,17.71-8.6,7.54,15.51,26.6-12.92-7.54-15.51,17.74-8.62,22.07,45.42-17.74,8.62-7.54-15.51-26.6,12.92Z"/><path class="g" d="M543.07,1478.23l22.07,45.42-17.71,8.6-22.07-45.42,17.71-8.6Z"/><path class="g" d="M596.27,1452.47c9.31-4.65,21.08-.63,25.51,8.83,4.68,9.3,.6,21.1-8.83,25.51l-26.06,12.66,5.39,11.09-17.71,8.6-22.07-45.42,43.77-21.26Zm5.79,23.17c1.05-.51,1.78-1.32,2.16-2.43,.4-1.16,.33-2.25-.18-3.3s-1.34-1.81-2.48-2.18c-1.12-.42-2.21-.34-3.26,.16l-21.63,10.51,3.76,7.74,21.63-10.51Z"/><path class="g" d="M650.44,1463.03l7.54,15.51-17.71,8.6-22.07-45.42,17.71-8.6,7.54,15.51,26.6-12.92-7.54-15.51,17.74-8.62,22.07,45.42-17.74,8.62-7.54-15.51-26.6,12.92Z"/><path class="g" d="M758.79,1399.45l1.61,3.31c8.41,17.14-3.17,28.9-20.22,37.23-17.12,8.27-33.52,10.1-41.8-7.1l-1.61-3.31c-8.42-17.17,3.17-28.9,20.25-37.24,17.1-8.31,33.42-10.05,41.76,7.11Zm-17.18,9.68c-3.49-7.45-10.3-5.81-17.58-2.4-7.22,3.63-12.71,7.97-9.01,15.32l.54,1.12c3.51,7.48,10.32,5.85,17.63,2.42,7.18-3.62,12.68-7.96,8.96-15.34l-.54-1.12Z"/><path class="g" d="M797.6,1354.66c9.31-4.65,21.08-.63,25.51,8.83,4.68,9.3,.6,21.1-8.83,25.51l-26.06,12.66,5.39,11.09-17.71,8.6-22.07-45.42,43.77-21.26Zm5.78,23.17c1.05-.51,1.78-1.32,2.16-2.43,.4-1.16,.33-2.25-.18-3.3s-1.34-1.81-2.48-2.18c-1.12-.42-2.21-.34-3.26,.16l-21.63,10.51,3.76,7.74,21.63-10.51Z"/><g><path class="g" d="M916.85,1298.87l53.16-25.83,5.65,11.63-35.45,17.22,2.82,5.81,35.45-17.22,5.11,10.51-35.45,17.22,2.82,5.81,35.45-17.22,5.66,11.66-53.16,25.83-22.07-45.42Z"/><path class="g" d="M1023.69,1246.88l17.74-8.62,22.07,45.42-19.94,9.69-37.88-15.89,13.48,27.75-17.71,8.6-22.07-45.42,24.37-11.84,31.63,14.38-11.69-24.06Z"/><path class="g" d="M1092.19,1213.68c12.39-6.23,26.74-.25,32.66,12.2,6.09,12.29,1.96,27.33-10.6,33.22l-40.42,19.64-22.07-45.42,40.42-19.64Zm3.68,16.01l-19.4,9.42,8.08,16.63,19.4-9.42c4.6-2.23,5.38-7.25,3.16-11.81s-6.64-7.05-11.24-4.82Z"/><path class="g" d="M1119.06,1200.63l53.16-25.83,5.65,11.63-35.45,17.22,2.82,5.81,35.45-17.22,5.11,10.51-35.45,17.22,2.82,5.81,35.45-17.22,5.66,11.66-53.16,25.83-22.07-45.42Z"/><path class="g" d="M1225.37,1148.94c9.31-4.65,21.08-.63,25.51,8.83,1.66,3.41,2.26,6.97,1.78,10.62-.46,3.61-1.84,6.87-4.14,9.7l16.09,7.93-18.86,9.16-13.94-6.93-15.82,7.68,5.39,11.09-17.71,8.6-22.07-45.42,43.77-21.26Zm-19.6,25.94l3.76,7.74,21.6-10.49c1.08-.53,1.81-1.34,2.2-2.45,.4-1.16,.33-2.25-.18-3.3-1.05-2.16-3.61-3.05-5.77-2l-21.6,10.49Z"/><polygon class="g" points="907.12 1359.74 844.99 1333.78 906.71 1303.79 913.71 1318.19 891.98 1328.75 907.05 1359.77 907.12 1359.74"/></g></g><g class="h"><path class="g" d="M1000.24,1550.29l7.54,15.51-17.71,8.6-22.07-45.42,17.71-8.6,7.54,15.51,26.6-12.92-7.54-15.51,17.74-8.62,22.07,45.42-17.74,8.62-7.54-15.51-26.6,12.92Z"/><path class="g" d="M1058.07,1485.23l22.07,45.42-17.71,8.6-22.07-45.42,17.71-8.6Z"/><path class="g" d="M1111.27,1459.47c9.31-4.65,21.08-.63,25.51,8.83,4.68,9.3,.6,21.1-8.83,25.51l-26.06,12.66,5.39,11.09-17.71,8.6-22.07-45.42,43.77-21.26Zm5.79,23.17c1.05-.51,1.78-1.32,2.16-2.43,.4-1.16,.33-2.25-.18-3.3s-1.34-1.81-2.48-2.18c-1.12-.42-2.21-.34-3.26,.16l-21.63,10.51,3.76,7.74,21.63-10.51Z"/><path class="g" d="M1165.44,1470.03l7.54,15.51-17.71,8.6-22.07-45.42,17.71-8.6,7.54,15.51,26.6-12.92-7.54-15.51,17.74-8.62,22.07,45.42-17.74,8.62-7.54-15.51-26.6,12.92Z"/><path class="g" d="M1273.79,1406.45l1.61,3.31c8.41,17.14-3.17,28.9-20.22,37.23-17.12,8.27-33.52,10.1-41.8-7.1l-1.61-3.31c-8.42-17.17,3.17-28.9,20.25-37.24,17.1-8.31,33.42-10.05,41.76,7.11Zm-17.18,9.68c-3.49-7.45-10.3-5.81-17.58-2.4-7.22,3.63-12.71,7.97-9.01,15.32l.54,1.12c3.51,7.48,10.32,5.85,17.63,2.42,7.18-3.62,12.68-7.96,8.96-15.34l-.54-1.12Z"/><path class="g" d="M1312.6,1361.66c9.31-4.65,21.08-.63,25.51,8.83,4.68,9.3,.6,21.1-8.83,25.51l-26.06,12.66,5.39,11.09-17.71,8.6-22.07-45.42,43.77-21.26Zm5.78,23.17c1.05-.51,1.78-1.32,2.16-2.43,.4-1.16,.33-2.25-.18-3.3s-1.34-1.81-2.48-2.18c-1.12-.42-2.21-.34-3.26,.16l-21.63,10.51,3.76,7.74,21.63-10.51Z"/><g><path class="g" d="M1431.85,1305.87l53.16-25.83,5.65,11.63-35.45,17.22,2.82,5.81,35.45-17.22,5.11,10.51-35.45,17.22,2.82,5.81,35.45-17.22,5.66,11.66-53.16,25.83-22.07-45.42Z"/><path class="g" d="M1538.69,1253.88l17.74-8.62,22.07,45.42-19.94,9.69-37.88-15.89,13.48,27.75-17.71,8.6-22.07-45.42,24.37-11.84,31.63,14.38-11.69-24.06Z"/><path class="g" d="M1607.19,1220.68c12.39-6.23,26.74-.25,32.66,12.2,6.09,12.29,1.96,27.33-10.6,33.22l-40.42,19.64-22.07-45.42,40.42-19.64Zm3.68,16.01l-19.4,9.42,8.08,16.63,19.4-9.42c4.6-2.23,5.38-7.25,3.16-11.81s-6.64-7.05-11.24-4.82Z"/><path class="g" d="M1634.06,1207.63l53.16-25.83,5.65,11.63-35.45,17.22,2.82,5.81,35.45-17.22,5.11,10.51-35.45,17.22,2.82,5.81,35.45-17.22,5.66,11.66-53.16,25.83-22.07-45.42Z"/><path class="g" d="M1740.37,1155.94c9.31-4.65,21.08-.63,25.51,8.83,1.66,3.41,2.26,6.97,1.78,10.62-.46,3.61-1.84,6.87-4.14,9.7l16.09,7.93-18.86,9.16-13.94-6.93-15.82,7.68,5.39,11.09-17.71,8.6-22.07-45.42,43.77-21.26Zm-19.6,25.94l3.76,7.74,21.6-10.49c1.08-.53,1.81-1.34,2.2-2.45,.4-1.16,.33-2.25-.18-3.3-1.05-2.16-3.61-3.05-5.77-2l-21.6,10.49Z"/><polygon class="g" points="1422.12 1366.74 1359.99 1340.78 1421.71 1310.79 1428.71 1325.19 1406.98 1335.75 1422.05 1366.77 1422.12 1366.74"/></g></g><g class="h"><path class="g" d="M945.24,543.29l7.54,15.51-17.71,8.6-22.07-45.42,17.71-8.6,7.54,15.51,26.6-12.92-7.54-15.51,17.74-8.62,22.07,45.42-17.74,8.62-7.54-15.51-26.6,12.92Z"/><path class="g" d="M1003.07,478.23l22.07,45.42-17.71,8.6-22.07-45.42,17.71-8.6Z"/><path class="g" d="M1056.27,452.47c9.31-4.65,21.08-.63,25.51,8.83,4.68,9.3,.6,21.1-8.83,25.51l-26.06,12.66,5.39,11.09-17.71,8.6-22.07-45.42,43.77-21.26Zm5.79,23.17c1.05-.51,1.78-1.32,2.16-2.43,.4-1.16,.33-2.25-.18-3.3s-1.34-1.81-2.48-2.18c-1.12-.42-2.21-.34-3.26,.16l-21.63,10.51,3.76,7.74,21.63-10.51Z"/><path class="g" d="M1110.44,463.03l7.54,15.51-17.71,8.6-22.07-45.42,17.71-8.6,7.54,15.51,26.6-12.92-7.54-15.51,17.74-8.62,22.07,45.42-17.74,8.62-7.54-15.51-26.6,12.92Z"/><path class="g" d="M1218.79,399.45l1.61,3.31c8.41,17.14-3.17,28.9-20.22,37.23-17.12,8.27-33.52,10.1-41.8-7.1l-1.61-3.31c-8.42-17.17,3.17-28.9,20.25-37.24,17.1-8.31,33.42-10.05,41.76,7.11Zm-17.18,9.68c-3.49-7.45-10.3-5.81-17.58-2.4-7.22,3.63-12.71,7.97-9.01,15.32l.54,1.12c3.51,7.48,10.32,5.85,17.63,2.42,7.18-3.62,12.68-7.96,8.96-15.34l-.54-1.12Z"/><path class="g" d="M1257.6,354.66c9.31-4.65,21.08-.63,25.51,8.83,4.68,9.3,.6,21.1-8.83,25.51l-26.06,12.66,5.39,11.09-17.71,8.6-22.07-45.42,43.77-21.26Zm5.78,23.17c1.05-.51,1.78-1.32,2.16-2.43,.4-1.16,.33-2.25-.18-3.3s-1.34-1.81-2.48-2.18c-1.12-.42-2.21-.34-3.26,.16l-21.63,10.51,3.76,7.74,21.63-10.51Z"/><g><path class="g" d="M1376.85,298.87l53.16-25.83,5.65,11.63-35.45,17.22,2.82,5.81,35.45-17.22,5.11,10.51-35.45,17.22,2.82,5.81,35.45-17.22,5.66,11.66-53.16,25.83-22.07-45.42Z"/><path class="g" d="M1483.69,246.88l17.74-8.62,22.07,45.42-19.94,9.69-37.88-15.89,13.48,27.75-17.71,8.6-22.07-45.42,24.37-11.84,31.63,14.38-11.69-24.06Z"/><path class="g" d="M1552.19,213.68c12.39-6.23,26.74-.25,32.66,12.2,6.09,12.29,1.96,27.33-10.6,33.22l-40.42,19.64-22.07-45.42,40.42-19.64Zm3.68,16.01l-19.4,9.42,8.08,16.63,19.4-9.42c4.6-2.23,5.38-7.25,3.16-11.81s-6.64-7.05-11.24-4.82Z"/><path class="g" d="M1579.06,200.63l53.16-25.83,5.65,11.63-35.45,17.22,2.82,5.81,35.45-17.22,5.11,10.51-35.45,17.22,2.82,5.81,35.45-17.22,5.66,11.66-53.16,25.83-22.07-45.42Z"/><path class="g" d="M1685.37,148.94c9.31-4.65,21.08-.63,25.51,8.83,1.66,3.41,2.26,6.97,1.78,10.62-.46,3.61-1.84,6.87-4.14,9.7l16.09,7.93-18.86,9.16-13.94-6.93-15.82,7.68,5.39,11.09-17.71,8.6-22.07-45.42,43.77-21.26Zm-19.6,25.94l3.76,7.74,21.6-10.49c1.08-.53,1.81-1.34,2.2-2.45,.4-1.16,.33-2.25-.18-3.3-1.05-2.16-3.61-3.05-5.77-2l-21.6,10.49Z"/><polygon class="g" points="1367.12 359.74 1304.99 333.78 1366.71 303.79 1373.71 318.19 1351.98 328.75 1367.05 359.77 1367.12 359.74"/></g></g><g class="h"><path class="g" d="M878.24,813.29l7.54,15.51-17.71,8.6-22.07-45.42,17.71-8.6,7.54,15.51,26.6-12.92-7.54-15.51,17.74-8.62,22.07,45.42-17.74,8.62-7.54-15.51-26.6,12.92Z"/><path class="g" d="M936.07,748.23l22.07,45.42-17.71,8.6-22.07-45.42,17.71-8.6Z"/><path class="g" d="M989.27,722.47c9.31-4.65,21.08-.63,25.51,8.83,4.68,9.3,.6,21.1-8.83,25.51l-26.06,12.66,5.39,11.09-17.71,8.6-22.07-45.42,43.77-21.26Zm5.79,23.17c1.05-.51,1.78-1.32,2.16-2.43,.4-1.16,.33-2.25-.18-3.3s-1.34-1.81-2.48-2.18c-1.12-.42-2.21-.34-3.26,.16l-21.63,10.51,3.76,7.74,21.63-10.51Z"/><path class="g" d="M1043.44,733.03l7.54,15.51-17.71,8.6-22.07-45.42,17.71-8.6,7.54,15.51,26.6-12.92-7.54-15.51,17.74-8.62,22.07,45.42-17.74,8.62-7.54-15.51-26.6,12.92Z"/><path class="g" d="M1151.79,669.45l1.61,3.31c8.41,17.14-3.17,28.9-20.22,37.23-17.12,8.27-33.52,10.1-41.8-7.1l-1.61-3.31c-8.42-17.17,3.17-28.9,20.25-37.24,17.1-8.31,33.42-10.05,41.76,7.11Zm-17.18,9.68c-3.49-7.45-10.3-5.81-17.58-2.4-7.22,3.63-12.71,7.97-9.01,15.32l.54,1.12c3.51,7.48,10.32,5.85,17.63,2.42,7.18-3.62,12.68-7.96,8.96-15.34l-.54-1.12Z"/><path class="g" d="M1190.6,624.66c9.31-4.65,21.08-.63,25.51,8.83,4.68,9.3,.6,21.1-8.83,25.51l-26.06,12.66,5.39,11.09-17.71,8.6-22.07-45.42,43.77-21.26Zm5.78,23.17c1.05-.51,1.78-1.32,2.16-2.43,.4-1.16,.33-2.25-.18-3.3s-1.34-1.81-2.48-2.18c-1.12-.42-2.21-.34-3.26,.16l-21.63,10.51,3.76,7.74,21.63-10.51Z"/><g><path class="g" d="M1309.85,568.87l53.16-25.83,5.65,11.63-35.45,17.22,2.82,5.81,35.45-17.22,5.11,10.51-35.45,17.22,2.82,5.81,35.45-17.22,5.66,11.66-53.16,25.83-22.07-45.42Z"/><path class="g" d="M1416.69,516.88l17.74-8.62,22.07,45.42-19.94,9.69-37.88-15.89,13.48,27.75-17.71,8.6-22.07-45.42,24.37-11.84,31.63,14.38-11.69-24.06Z"/><path class="g" d="M1485.19,483.68c12.39-6.23,26.74-.25,32.66,12.2,6.09,12.29,1.96,27.33-10.6,33.22l-40.42,19.64-22.07-45.42,40.42-19.64Zm3.68,16.01l-19.4,9.42,8.08,16.63,19.4-9.42c4.6-2.23,5.38-7.25,3.16-11.81s-6.64-7.05-11.24-4.82Z"/><path class="g" d="M1512.06,470.63l53.16-25.83,5.65,11.63-35.45,17.22,2.82,5.81,35.45-17.22,5.11,10.51-35.45,17.22,2.82,5.81,35.45-17.22,5.66,11.66-53.16,25.83-22.07-45.42Z"/><path class="g" d="M1618.37,418.94c9.31-4.65,21.08-.63,25.51,8.83,1.66,3.41,2.26,6.97,1.78,10.62-.46,3.61-1.84,6.87-4.14,9.7l16.09,7.93-18.86,9.16-13.94-6.93-15.82,7.68,5.39,11.09-17.71,8.6-22.07-45.42,43.77-21.26Zm-19.6,25.94l3.76,7.74,21.6-10.49c1.08-.53,1.81-1.34,2.2-2.45,.4-1.16,.33-2.25-.18-3.3-1.05-2.16-3.61-3.05-5.77-2l-21.6,10.49Z"/><polygon class="g" points="1300.12 629.74 1237.99 603.78 1299.71 573.79 1306.71 588.19 1284.98 598.75 1300.05 629.77 1300.12 629.74"/></g></g><g class="h"><path class="g" d="M864.24,1094.29l7.54,15.51-17.71,8.6-22.07-45.42,17.71-8.6,7.54,15.51,26.6-12.92-7.54-15.51,17.74-8.62,22.07,45.42-17.74,8.62-7.54-15.51-26.6,12.92Z"/><path class="g" d="M922.07,1029.23l22.07,45.42-17.71,8.6-22.07-45.42,17.71-8.6Z"/><path class="g" d="M975.27,1003.47c9.31-4.65,21.08-.63,25.51,8.83,4.68,9.3,.6,21.1-8.83,25.51l-26.06,12.66,5.39,11.09-17.71,8.6-22.07-45.42,43.77-21.26Zm5.79,23.17c1.05-.51,1.78-1.32,2.16-2.43,.4-1.16,.33-2.25-.18-3.3s-1.34-1.81-2.48-2.18c-1.12-.42-2.21-.34-3.26,.16l-21.63,10.51,3.76,7.74,21.63-10.51Z"/><path class="g" d="M1029.44,1014.03l7.54,15.51-17.71,8.6-22.07-45.42,17.71-8.6,7.54,15.51,26.6-12.92-7.54-15.51,17.74-8.62,22.07,45.42-17.74,8.62-7.54-15.51-26.6,12.92Z"/><path class="g" d="M1137.79,950.45l1.61,3.31c8.41,17.14-3.17,28.9-20.22,37.23-17.12,8.27-33.52,10.1-41.8-7.1l-1.61-3.31c-8.42-17.17,3.17-28.9,20.25-37.24,17.1-8.31,33.42-10.05,41.76,7.11Zm-17.18,9.68c-3.49-7.45-10.3-5.81-17.58-2.4-7.22,3.63-12.71,7.97-9.01,15.32l.54,1.12c3.51,7.48,10.32,5.85,17.63,2.42,7.18-3.62,12.68-7.96,8.96-15.34l-.54-1.12Z"/><path class="g" d="M1176.6,905.66c9.31-4.65,21.08-.63,25.51,8.83,4.68,9.3,.6,21.1-8.83,25.51l-26.06,12.66,5.39,11.09-17.71,8.6-22.07-45.42,43.77-21.26Zm5.78,23.17c1.05-.51,1.78-1.32,2.16-2.43,.4-1.16,.33-2.25-.18-3.3s-1.34-1.81-2.48-2.18c-1.12-.42-2.21-.34-3.26,.16l-21.63,10.51,3.76,7.74,21.63-10.51Z"/><g><path class="g" d="M1295.85,849.87l53.16-25.83,5.65,11.63-35.45,17.22,2.82,5.81,35.45-17.22,5.11,10.51-35.45,17.22,2.82,5.81,35.45-17.22,5.66,11.66-53.16,25.83-22.07-45.42Z"/><path class="g" d="M1402.69,797.88l17.74-8.62,22.07,45.42-19.94,9.69-37.88-15.89,13.48,27.75-17.71,8.6-22.07-45.42,24.37-11.84,31.63,14.38-11.69-24.06Z"/><path class="g" d="M1471.19,764.68c12.39-6.23,26.74-.25,32.66,12.2,6.09,12.29,1.96,27.33-10.6,33.22l-40.42,19.64-22.07-45.42,40.42-19.64Zm3.68,16.01l-19.4,9.42,8.08,16.63,19.4-9.42c4.6-2.23,5.38-7.25,3.16-11.81s-6.64-7.05-11.24-4.82Z"/><path class="g" d="M1498.06,751.63l53.16-25.83,5.65,11.63-35.45,17.22,2.82,5.81,35.45-17.22,5.11,10.51-35.45,17.22,2.82,5.81,35.45-17.22,5.66,11.66-53.16,25.83-22.07-45.42Z"/><path class="g" d="M1604.37,699.94c9.31-4.65,21.08-.63,25.51,8.83,1.66,3.41,2.26,6.97,1.78,10.62-.46,3.61-1.84,6.87-4.14,9.7l16.09,7.93-18.86,9.16-13.94-6.93-15.82,7.68,5.39,11.09-17.71,8.6-22.07-45.42,43.77-21.26Zm-19.6,25.94l3.76,7.74,21.6-10.49c1.08-.53,1.81-1.34,2.2-2.45,.4-1.16,.33-2.25-.18-3.3-1.05-2.16-3.61-3.05-5.77-2l-21.6,10.49Z"/><polygon class="g" points="1286.12 910.74 1223.99 884.78 1285.71 854.79 1292.71 869.19 1270.98 879.75 1286.05 910.77 1286.12 910.74"/></g></g><g class="h"><path class="g" d="M1306.24,1138.29l7.54,15.51-17.71,8.6-22.07-45.42,17.71-8.6,7.54,15.51,26.6-12.92-7.54-15.51,17.74-8.62,22.07,45.42-17.74,8.62-7.54-15.51-26.6,12.92Z"/><path class="g" d="M1364.07,1073.23l22.07,45.42-17.71,8.6-22.07-45.42,17.71-8.6Z"/><path class="g" d="M1417.27,1047.47c9.31-4.65,21.08-.63,25.51,8.83,4.68,9.3,.6,21.1-8.83,25.51l-26.06,12.66,5.39,11.09-17.71,8.6-22.07-45.42,43.77-21.26Zm5.79,23.17c1.05-.51,1.78-1.32,2.16-2.43,.4-1.16,.33-2.25-.18-3.3s-1.34-1.81-2.48-2.18c-1.12-.42-2.21-.34-3.26,.16l-21.63,10.51,3.76,7.74,21.63-10.51Z"/><path class="g" d="M1471.44,1058.03l7.54,15.51-17.71,8.6-22.07-45.42,17.71-8.6,7.54,15.51,26.6-12.92-7.54-15.51,17.74-8.62,22.07,45.42-17.74,8.62-7.54-15.51-26.6,12.92Z"/><path class="g" d="M1579.79,994.45l1.61,3.31c8.41,17.14-3.17,28.9-20.22,37.23-17.12,8.27-33.52,10.1-41.8-7.1l-1.61-3.31c-8.42-17.17,3.17-28.9,20.25-37.24,17.1-8.31,33.42-10.05,41.76,7.11Zm-17.18,9.68c-3.49-7.45-10.3-5.81-17.58-2.4-7.22,3.63-12.71,7.97-9.01,15.32l.54,1.12c3.51,7.48,10.32,5.85,17.63,2.42,7.18-3.62,12.68-7.96,8.96-15.34l-.54-1.12Z"/><path class="g" d="M1618.6,949.66c9.31-4.65,21.08-.63,25.51,8.83,4.68,9.3,.6,21.1-8.83,25.51l-26.06,12.66,5.39,11.09-17.71,8.6-22.07-45.42,43.77-21.26Zm5.78,23.17c1.05-.51,1.78-1.32,2.16-2.43,.4-1.16,.33-2.25-.18-3.3s-1.34-1.81-2.48-2.18c-1.12-.42-2.21-.34-3.26,.16l-21.63,10.51,3.76,7.74,21.63-10.51Z"/><g><path class="g" d="M1737.85,893.87l53.16-25.83,5.65,11.63-35.45,17.22,2.82,5.81,35.45-17.22,5.11,10.51-35.45,17.22,2.82,5.81,35.45-17.22,5.66,11.66-53.16,25.83-22.07-45.42Z"/><path class="g" d="M1844.69,841.88l17.74-8.62,22.07,45.42-19.94,9.69-37.88-15.89,13.48,27.75-17.71,8.6-22.07-45.42,24.37-11.84,31.63,14.38-11.69-24.06Z"/><path class="g" d="M1913.19,808.68c12.39-6.23,26.74-.25,32.66,12.2,6.09,12.29,1.96,27.33-10.6,33.22l-40.42,19.64-22.07-45.42,40.42-19.64Zm3.68,16.01l-19.4,9.42,8.08,16.63,19.4-9.42c4.6-2.23,5.38-7.25,3.16-11.81s-6.64-7.05-11.24-4.82Z"/><path class="g" d="M1940.06,795.63l53.16-25.83,5.65,11.63-35.45,17.22,2.82,5.81,35.45-17.22,5.11,10.51-35.45,17.22,2.82,5.81,35.45-17.22,5.66,11.66-53.16,25.83-22.07-45.42Z"/><path class="g" d="M2046.37,743.94c9.31-4.65,21.08-.63,25.51,8.83,1.66,3.41,2.26,6.97,1.78,10.62-.46,3.61-1.84,6.87-4.14,9.7l16.09,7.93-18.86,9.16-13.94-6.93-15.82,7.68,5.39,11.09-17.71,8.6-22.07-45.42,43.77-21.26Zm-19.6,25.94l3.76,7.74,21.6-10.49c1.08-.53,1.81-1.34,2.2-2.45,.4-1.16,.33-2.25-.18-3.3-1.05-2.16-3.61-3.05-5.77-2l-21.6,10.49Z"/><polygon class="g" points="1728.12 954.74 1665.99 928.78 1727.71 898.79 1734.71 913.19 1712.98 923.75 1728.05 954.77 1728.12 954.74"/></g></g><g class="h"><path class="g" d="M1838.24,1144.29l7.54,15.51-17.71,8.6-22.07-45.42,17.71-8.6,7.54,15.51,26.6-12.92-7.54-15.51,17.74-8.62,22.07,45.42-17.74,8.62-7.54-15.51-26.6,12.92Z"/><path class="g" d="M1896.07,1079.23l22.07,45.42-17.71,8.6-22.07-45.42,17.71-8.6Z"/><path class="g" d="M1949.27,1053.47c9.31-4.65,21.08-.63,25.51,8.83,4.68,9.3,.6,21.1-8.83,25.51l-26.06,12.66,5.39,11.09-17.71,8.6-22.07-45.42,43.77-21.26Zm5.79,23.17c1.05-.51,1.78-1.32,2.16-2.43,.4-1.16,.33-2.25-.18-3.3s-1.34-1.81-2.48-2.18c-1.12-.42-2.21-.34-3.26,.16l-21.63,10.51,3.76,7.74,21.63-10.51Z"/><path class="g" d="M2003.44,1064.03l7.54,15.51-17.71,8.6-22.07-45.42,17.71-8.6,7.54,15.51,26.6-12.92-7.54-15.51,17.74-8.62,22.07,45.42-17.74,8.62-7.54-15.51-26.6,12.92Z"/><path class="g" d="M2111.79,1000.45l1.61,3.31c8.41,17.14-3.17,28.9-20.22,37.23-17.12,8.27-33.52,10.1-41.8-7.1l-1.61-3.31c-8.42-17.17,3.17-28.9,20.25-37.24,17.1-8.31,33.42-10.05,41.76,7.11Zm-17.18,9.68c-3.49-7.45-10.3-5.81-17.58-2.4-7.22,3.63-12.71,7.97-9.01,15.32l.54,1.12c3.51,7.48,10.32,5.85,17.63,2.42,7.18-3.62,12.68-7.96,8.96-15.34l-.54-1.12Z"/><path class="g" d="M2150.6,955.66c9.31-4.65,21.08-.63,25.51,8.83,4.68,9.3,.6,21.1-8.83,25.51l-26.06,12.66,5.39,11.09-17.71,8.6-22.07-45.42,43.77-21.26Zm5.78,23.17c1.05-.51,1.78-1.32,2.16-2.43,.4-1.16,.33-2.25-.18-3.3s-1.34-1.81-2.48-2.18c-1.12-.42-2.21-.34-3.26,.16l-21.63,10.51,3.76,7.74,21.63-10.51Z"/><g><path class="g" d="M2269.85,899.87l53.16-25.83,5.65,11.63-35.45,17.22,2.82,5.81,35.45-17.22,5.11,10.51-35.45,17.22,2.82,5.81,35.45-17.22,5.66,11.66-53.16,25.83-22.07-45.42Z"/><path class="g" d="M2376.69,847.88l17.74-8.62,22.07,45.42-19.94,9.69-37.88-15.89,13.48,27.75-17.71,8.6-22.07-45.42,24.37-11.84,31.63,14.38-11.69-24.06Z"/><path class="g" d="M2445.19,814.68c12.39-6.23,26.74-.25,32.66,12.2,6.09,12.29,1.96,27.33-10.6,33.22l-40.42,19.64-22.07-45.42,40.42-19.64Zm3.68,16.01l-19.4,9.42,8.08,16.63,19.4-9.42c4.6-2.23,5.38-7.25,3.16-11.81s-6.64-7.05-11.24-4.82Z"/><path class="g" d="M2472.06,801.63l53.16-25.83,5.65,11.63-35.45,17.22,2.82,5.81,35.45-17.22,5.11,10.51-35.45,17.22,2.82,5.81,35.45-17.22,5.66,11.66-53.16,25.83-22.07-45.42Z"/><path class="g" d="M2578.37,749.94c9.31-4.65,21.08-.63,25.51,8.83,1.66,3.41,2.26,6.97,1.78,10.62-.46,3.61-1.84,6.87-4.14,9.7l16.09,7.93-18.86,9.16-13.94-6.93-15.82,7.68,5.39,11.09-17.71,8.6-22.07-45.42,43.77-21.26Zm-19.6,25.94l3.76,7.74,21.6-10.49c1.08-.53,1.81-1.34,2.2-2.45,.4-1.16,.33-2.25-.18-3.3-1.05-2.16-3.61-3.05-5.77-2l-21.6,10.49Z"/><polygon class="g" points="2260.12 960.74 2197.99 934.78 2259.71 904.79 2266.71 919.19 2244.98 929.75 2260.05 960.77 2260.12 960.74"/></g></g><g class="h"><path class="g" d="M1693.24,1483.29l7.54,15.51-17.71,8.6-22.07-45.42,17.71-8.6,7.54,15.51,26.6-12.92-7.54-15.51,17.74-8.62,22.07,45.42-17.74,8.62-7.54-15.51-26.6,12.92Z"/><path class="g" d="M1751.07,1418.23l22.07,45.42-17.71,8.6-22.07-45.42,17.71-8.6Z"/><path class="g" d="M1804.27,1392.47c9.31-4.65,21.08-.63,25.51,8.83,4.68,9.3,.6,21.1-8.83,25.51l-26.06,12.66,5.39,11.09-17.71,8.6-22.07-45.42,43.77-21.26Zm5.79,23.17c1.05-.51,1.78-1.32,2.16-2.43,.4-1.16,.33-2.25-.18-3.3s-1.34-1.81-2.48-2.18c-1.12-.42-2.21-.34-3.26,.16l-21.63,10.51,3.76,7.74,21.63-10.51Z"/><path class="g" d="M1858.44,1403.03l7.54,15.51-17.71,8.6-22.07-45.42,17.71-8.6,7.54,15.51,26.6-12.92-7.54-15.51,17.74-8.62,22.07,45.42-17.74,8.62-7.54-15.51-26.6,12.92Z"/><path class="g" d="M1966.79,1339.45l1.61,3.31c8.41,17.14-3.17,28.9-20.22,37.23-17.12,8.27-33.52,10.1-41.8-7.1l-1.61-3.31c-8.42-17.17,3.17-28.9,20.25-37.24,17.1-8.31,33.42-10.05,41.76,7.11Zm-17.18,9.68c-3.49-7.45-10.3-5.81-17.58-2.4-7.22,3.63-12.71,7.97-9.01,15.32l.54,1.12c3.51,7.48,10.32,5.85,17.63,2.42,7.18-3.62,12.68-7.96,8.96-15.34l-.54-1.12Z"/><path class="g" d="M2005.6,1294.66c9.31-4.65,21.08-.63,25.51,8.83,4.68,9.3,.6,21.1-8.83,25.51l-26.06,12.66,5.39,11.09-17.71,8.6-22.07-45.42,43.77-21.26Zm5.78,23.17c1.05-.51,1.78-1.32,2.16-2.43,.4-1.16,.33-2.25-.18-3.3s-1.34-1.81-2.48-2.18c-1.12-.42-2.21-.34-3.26,.16l-21.63,10.51,3.76,7.74,21.63-10.51Z"/><g><path class="g" d="M2124.85,1238.87l53.16-25.83,5.65,11.63-35.45,17.22,2.82,5.81,35.45-17.22,5.11,10.51-35.45,17.22,2.82,5.81,35.45-17.22,5.66,11.66-53.16,25.83-22.07-45.42Z"/><path class="g" d="M2231.69,1186.88l17.74-8.62,22.07,45.42-19.94,9.69-37.88-15.89,13.48,27.75-17.71,8.6-22.07-45.42,24.37-11.84,31.63,14.38-11.69-24.06Z"/><path class="g" d="M2300.19,1153.68c12.39-6.23,26.74-.25,32.66,12.2,6.09,12.29,1.96,27.33-10.6,33.22l-40.42,19.64-22.07-45.42,40.42-19.64Zm3.68,16.01l-19.4,9.42,8.08,16.63,19.4-9.42c4.6-2.23,5.38-7.25,3.16-11.81s-6.64-7.05-11.24-4.82Z"/><path class="g" d="M2327.06,1140.63l53.16-25.83,5.65,11.63-35.45,17.22,2.82,5.81,35.45-17.22,5.11,10.51-35.45,17.22,2.82,5.81,35.45-17.22,5.66,11.66-53.16,25.83-22.07-45.42Z"/><path class="g" d="M2433.37,1088.94c9.31-4.65,21.08-.63,25.51,8.83,1.66,3.41,2.26,6.97,1.78,10.62-.46,3.61-1.84,6.87-4.14,9.7l16.09,7.93-18.86,9.16-13.94-6.93-15.82,7.68,5.39,11.09-17.71,8.6-22.07-45.42,43.77-21.26Zm-19.6,25.94l3.76,7.74,21.6-10.49c1.08-.53,1.81-1.34,2.2-2.45,.4-1.16,.33-2.25-.18-3.3-1.05-2.16-3.61-3.05-5.77-2l-21.6,10.49Z"/><polygon class="g" points="2115.12 1299.74 2052.99 1273.78 2114.71 1243.79 2121.71 1258.19 2099.98 1268.75 2115.05 1299.77 2115.12 1299.74"/></g></g><g class="h"><path class="g" d="M1726.24,396.29l7.54,15.51-17.71,8.6-22.07-45.42,17.71-8.6,7.54,15.51,26.6-12.92-7.54-15.51,17.74-8.62,22.07,45.42-17.74,8.62-7.54-15.51-26.6,12.92Z"/><path class="g" d="M1784.07,331.23l22.07,45.42-17.71,8.6-22.07-45.42,17.71-8.6Z"/><path class="g" d="M1837.27,305.47c9.31-4.65,21.08-.63,25.51,8.83,4.68,9.3,.6,21.1-8.83,25.51l-26.06,12.66,5.39,11.09-17.71,8.6-22.07-45.42,43.77-21.26Zm5.79,23.17c1.05-.51,1.78-1.32,2.16-2.43,.4-1.16,.33-2.25-.18-3.3s-1.34-1.81-2.48-2.18c-1.12-.42-2.21-.34-3.26,.16l-21.63,10.51,3.76,7.74,21.63-10.51Z"/><path class="g" d="M1891.44,316.03l7.54,15.51-17.71,8.6-22.07-45.42,17.71-8.6,7.54,15.51,26.6-12.92-7.54-15.51,17.74-8.62,22.07,45.42-17.74,8.62-7.54-15.51-26.6,12.92Z"/><path class="g" d="M1999.79,252.45l1.61,3.31c8.41,17.14-3.17,28.9-20.22,37.23-17.12,8.27-33.52,10.1-41.8-7.1l-1.61-3.31c-8.42-17.17,3.17-28.9,20.25-37.24,17.1-8.31,33.42-10.05,41.76,7.11Zm-17.18,9.68c-3.49-7.45-10.3-5.81-17.58-2.4-7.22,3.63-12.71,7.97-9.01,15.32l.54,1.12c3.51,7.48,10.32,5.85,17.63,2.42,7.18-3.62,12.68-7.96,8.96-15.34l-.54-1.12Z"/><path class="g" d="M2038.6,207.66c9.31-4.65,21.08-.63,25.51,8.83,4.68,9.3,.6,21.1-8.83,25.51l-26.06,12.66,5.39,11.09-17.71,8.6-22.07-45.42,43.77-21.26Zm5.78,23.17c1.05-.51,1.78-1.32,2.16-2.43,.4-1.16,.33-2.25-.18-3.3s-1.34-1.81-2.48-2.18c-1.12-.42-2.21-.34-3.26,.16l-21.63,10.51,3.76,7.74,21.63-10.51Z"/><g><path class="g" d="M2157.85,151.87l53.16-25.83,5.65,11.63-35.45,17.22,2.82,5.81,35.45-17.22,5.11,10.51-35.45,17.22,2.82,5.81,35.45-17.22,5.66,11.66-53.16,25.83-22.07-45.42Z"/><path class="g" d="M2264.69,99.88l17.74-8.62,22.07,45.42-19.94,9.69-37.88-15.89,13.48,27.75-17.71,8.6-22.07-45.42,24.37-11.84,31.63,14.38-11.69-24.06Z"/><path class="g" d="M2333.19,66.68c12.39-6.23,26.74-.25,32.66,12.2,6.09,12.29,1.96,27.33-10.6,33.22l-40.42,19.64-22.07-45.42,40.42-19.64Zm3.68,16.01l-19.4,9.42,8.08,16.63,19.4-9.42c4.6-2.23,5.38-7.25,3.16-11.81s-6.64-7.05-11.24-4.82Z"/><path class="g" d="M2360.06,53.63l53.16-25.83,5.65,11.63-35.45,17.22,2.82,5.81,35.45-17.22,5.11,10.51-35.45,17.22,2.82,5.81,35.45-17.22,5.66,11.66-53.16,25.83-22.07-45.42Z"/><path class="g" d="M2466.37,1.94c9.31-4.65,21.08-.63,25.51,8.83,1.66,3.41,2.26,6.97,1.78,10.62-.46,3.61-1.84,6.87-4.14,9.7l16.09,7.93-18.86,9.16-13.94-6.93-15.82,7.68,5.39,11.09-17.71,8.6-22.07-45.42,43.77-21.26Zm-19.6,25.94l3.76,7.74,21.6-10.49c1.08-.53,1.81-1.34,2.2-2.45,.4-1.16,.33-2.25-.18-3.3-1.05-2.16-3.61-3.05-5.77-2l-21.6,10.49Z"/><polygon class="g" points="2148.12 212.74 2085.99 186.78 2147.71 156.79 2154.71 171.19 2132.98 181.75 2148.05 212.77 2148.12 212.74"/></g></g><g class="h"><path class="g" d="M1692.24,694.29l7.54,15.51-17.71,8.6-22.07-45.42,17.71-8.6,7.54,15.51,26.6-12.92-7.54-15.51,17.74-8.62,22.07,45.42-17.74,8.62-7.54-15.51-26.6,12.92Z"/><path class="g" d="M1750.07,629.23l22.07,45.42-17.71,8.6-22.07-45.42,17.71-8.6Z"/><path class="g" d="M1803.27,603.47c9.31-4.65,21.08-.63,25.51,8.83,4.68,9.3,.6,21.1-8.83,25.51l-26.06,12.66,5.39,11.09-17.71,8.6-22.07-45.42,43.77-21.26Zm5.79,23.17c1.05-.51,1.78-1.32,2.16-2.43,.4-1.16,.33-2.25-.18-3.3s-1.34-1.81-2.48-2.18c-1.12-.42-2.21-.34-3.26,.16l-21.63,10.51,3.76,7.74,21.63-10.51Z"/><path class="g" d="M1857.44,614.03l7.54,15.51-17.71,8.6-22.07-45.42,17.71-8.6,7.54,15.51,26.6-12.92-7.54-15.51,17.74-8.62,22.07,45.42-17.74,8.62-7.54-15.51-26.6,12.92Z"/><path class="g" d="M1965.79,550.45l1.61,3.31c8.41,17.14-3.17,28.9-20.22,37.23-17.12,8.27-33.52,10.1-41.8-7.1l-1.61-3.31c-8.42-17.17,3.17-28.9,20.25-37.24,17.1-8.31,33.42-10.05,41.76,7.11Zm-17.18,9.68c-3.49-7.45-10.3-5.81-17.58-2.4-7.22,3.63-12.71,7.97-9.01,15.32l.54,1.12c3.51,7.48,10.32,5.85,17.63,2.42,7.18-3.62,12.68-7.96,8.96-15.34l-.54-1.12Z"/><path class="g" d="M2004.6,505.66c9.31-4.65,21.08-.63,25.51,8.83,4.68,9.3,.6,21.1-8.83,25.51l-26.06,12.66,5.39,11.09-17.71,8.6-22.07-45.42,43.77-21.26Zm5.78,23.17c1.05-.51,1.78-1.32,2.16-2.43,.4-1.16,.33-2.25-.18-3.3s-1.34-1.81-2.48-2.18c-1.12-.42-2.21-.34-3.26,.16l-21.63,10.51,3.76,7.74,21.63-10.51Z"/><g><path class="g" d="M2123.85,449.87l53.16-25.83,5.65,11.63-35.45,17.22,2.82,5.81,35.45-17.22,5.11,10.51-35.45,17.22,2.82,5.81,35.45-17.22,5.66,11.66-53.16,25.83-22.07-45.42Z"/><path class="g" d="M2230.69,397.88l17.74-8.62,22.07,45.42-19.94,9.69-37.88-15.89,13.48,27.75-17.71,8.6-22.07-45.42,24.37-11.84,31.63,14.38-11.69-24.06Z"/><path class="g" d="M2299.19,364.68c12.39-6.23,26.74-.25,32.66,12.2,6.09,12.29,1.96,27.33-10.6,33.22l-40.42,19.64-22.07-45.42,40.42-19.64Zm3.68,16.01l-19.4,9.42,8.08,16.63,19.4-9.42c4.6-2.23,5.38-7.25,3.16-11.81s-6.64-7.05-11.24-4.82Z"/><path class="g" d="M2326.06,351.63l53.16-25.83,5.65,11.63-35.45,17.22,2.82,5.81,35.45-17.22,5.11,10.51-35.45,17.22,2.82,5.81,35.45-17.22,5.66,11.66-53.16,25.83-22.07-45.42Z"/><path class="g" d="M2432.37,299.94c9.31-4.65,21.08-.63,25.51,8.83,1.66,3.41,2.26,6.97,1.78,10.62-.46,3.61-1.84,6.87-4.14,9.7l16.09,7.93-18.86,9.16-13.94-6.93-15.82,7.68,5.39,11.09-17.71,8.6-22.07-45.42,43.77-21.26Zm-19.6,25.94l3.76,7.74,21.6-10.49c1.08-.53,1.81-1.34,2.2-2.45,.4-1.16,.33-2.25-.18-3.3-1.05-2.16-3.61-3.05-5.77-2l-21.6,10.49Z"/><polygon class="g" points="2114.12 510.74 2051.99 484.78 2113.71 454.79 2120.71 469.19 2098.98 479.75 2114.05 510.77 2114.12 510.74"/></g></g><g class="h"><path class="g" d="M2132.24,741.29l7.54,15.51-17.71,8.6-22.07-45.42,17.71-8.6,7.54,15.51,26.6-12.92-7.54-15.51,17.74-8.62,22.07,45.42-17.74,8.62-7.54-15.51-26.6,12.92Z"/><path class="g" d="M2190.07,676.23l22.07,45.42-17.71,8.6-22.07-45.42,17.71-8.6Z"/><path class="g" d="M2243.27,650.47c9.31-4.65,21.08-.63,25.51,8.83,4.68,9.3,.6,21.1-8.83,25.51l-26.06,12.66,5.39,11.09-17.71,8.6-22.07-45.42,43.77-21.26Zm5.79,23.17c1.05-.51,1.78-1.32,2.16-2.43,.4-1.16,.33-2.25-.18-3.3s-1.34-1.81-2.48-2.18c-1.12-.42-2.21-.34-3.26,.16l-21.63,10.51,3.76,7.74,21.63-10.51Z"/><path class="g" d="M2297.44,661.03l7.54,15.51-17.71,8.6-22.07-45.42,17.71-8.6,7.54,15.51,26.6-12.92-7.54-15.51,17.74-8.62,22.07,45.42-17.74,8.62-7.54-15.51-26.6,12.92Z"/><path class="g" d="M2405.79,597.45l1.61,3.31c8.41,17.14-3.17,28.9-20.22,37.23-17.12,8.27-33.52,10.1-41.8-7.1l-1.61-3.31c-8.42-17.17,3.17-28.9,20.25-37.24,17.1-8.31,33.42-10.05,41.76,7.11Zm-17.18,9.68c-3.49-7.45-10.3-5.81-17.58-2.4-7.22,3.63-12.71,7.97-9.01,15.32l.54,1.12c3.51,7.48,10.32,5.85,17.63,2.42,7.18-3.62,12.68-7.96,8.96-15.34l-.54-1.12Z"/><path class="g" d="M2444.6,552.66c9.31-4.65,21.08-.63,25.51,8.83,4.68,9.3,.6,21.1-8.83,25.51l-26.06,12.66,5.39,11.09-17.71,8.6-22.07-45.42,43.77-21.26Zm5.78,23.17c1.05-.51,1.78-1.32,2.16-2.43,.4-1.16,.33-2.25-.18-3.3s-1.34-1.81-2.48-2.18c-1.12-.42-2.21-.34-3.26,.16l-21.63,10.51,3.76,7.74,21.63-10.51Z"/><g><path class="g" d="M2563.85,496.87l53.16-25.83,5.65,11.63-35.45,17.22,2.82,5.81,35.45-17.22,5.11,10.51-35.45,17.22,2.82,5.81,35.45-17.22,5.66,11.66-53.16,25.83-22.07-45.42Z"/><path class="g" d="M2670.69,444.88l17.74-8.62,22.07,45.42-19.94,9.69-37.88-15.89,13.48,27.75-17.71,8.6-22.07-45.42,24.37-11.84,31.63,14.38-11.69-24.06Z"/><path class="g" d="M2739.19,411.68c12.39-6.23,26.74-.25,32.66,12.2,6.09,12.29,1.96,27.33-10.6,33.22l-40.42,19.64-22.07-45.42,40.42-19.64Zm3.68,16.01l-19.4,9.42,8.08,16.63,19.4-9.42c4.6-2.23,5.38-7.25,3.16-11.81s-6.64-7.05-11.24-4.82Z"/><path class="g" d="M2766.06,398.63l53.16-25.83,5.65,11.63-35.45,17.22,2.82,5.81,35.45-17.22,5.11,10.51-35.45,17.22,2.82,5.81,35.45-17.22,5.66,11.66-53.16,25.83-22.07-45.42Z"/><path class="g" d="M2872.37,346.94c9.31-4.65,21.08-.63,25.51,8.83,1.66,3.41,2.26,6.97,1.78,10.62-.46,3.61-1.84,6.87-4.14,9.7l16.09,7.93-18.86,9.16-13.94-6.93-15.82,7.68,5.39,11.09-17.71,8.6-22.07-45.42,43.77-21.26Zm-19.6,25.94l3.76,7.74,21.6-10.49c1.08-.53,1.81-1.34,2.2-2.45,.4-1.16,.33-2.25-.18-3.3-1.05-2.16-3.61-3.05-5.77-2l-21.6,10.49Z"/><polygon class="g" points="2554.12 557.74 2491.99 531.78 2553.71 501.79 2560.71 516.19 2538.98 526.75 2554.05 557.77 2554.12 557.74"/></g></g></g></g></svg>