<?xml version="1.0" encoding="UTF-8"?><svg xmlns="http://www.w3.org/2000/svg" viewBox="0 0 1616.93 479.6"><defs><style>.e{fill:#fff;}.f{fill:#9e005d;}.g{fill:#1a1a1a;}</style></defs><g id="a"/><g id="b"><g id="c"><rect class="f" x="1195.95" y="58.63" width="362.35" height="362.35" rx="39.64" ry="39.64" transform="translate(572.92 -903.54) rotate(45)"/><path class="e" d="M1496.87,243.76c-.12,.16-.24,.33-.36,.5l-59.6-3.76c-1.21-1.91-2.77-3.64-4.67-5.1-8.65-6.61-21.02-4.97-27.63,3.68-.12,.16-.24,.33-.36,.5l-56.09-3.54c-1.23-1.98-2.82-3.78-4.79-5.28-6.34-4.85-14.67-5.25-21.27-1.72l-49.01-37.48c2.02-7.49-.51-15.79-7.06-20.8-8.65-6.61-21.02-4.97-27.63,3.68-6.61,8.65-4.97,21.02,3.68,27.63,6.34,4.85,14.67,5.25,21.27,1.72l49.01,37.48c-2.02,7.49,.51,15.79,7.06,20.8,1.57,1.2,3.25,2.12,5.01,2.78l18.76,55.14c-.93,.83-1.8,1.75-2.58,2.78-6.61,8.65-4.97,21.02,3.68,27.63,8.65,6.61,21.02,4.97,27.63-3.68,6.61-8.65,4.97-21.02-3.68-27.63-3.07-2.35-6.61-3.65-10.19-3.97l-17.44-51.27c2.45-1.29,4.66-3.11,6.46-5.46,1.54-2.02,2.63-4.24,3.29-6.55l50.62,3.19c.92,4.49,3.4,8.68,7.33,11.68,2.65,2.03,5.66,3.28,8.74,3.79l18.43,54.17c-.93,.83-1.8,1.75-2.58,2.78-6.61,8.65-4.97,21.02,3.68,27.63,8.65,6.61,21.02,4.97,27.63-3.68,6.61-8.65,4.97-21.02-3.68-27.63-3.07-2.35-6.61-3.65-10.19-3.97l-18.06-53.08c1.35-1.04,2.59-2.26,3.67-3.68,1.58-2.07,2.69-4.36,3.34-6.72l53.97,3.4c.92,4.49,3.4,8.68,7.33,11.68,8.65,6.61,21.02,4.97,27.63-3.68,6.61-8.65,4.97-21.02-3.68-27.63-8.65-6.61-21.02-4.97-27.63,3.68Z"/></g><g id="d"><g><path class="g" d="M97.98,279.47v85.83H0V113.99H97.98v85.82H245.14V113.99h98.17v251.31h-98.17v-85.83H97.98Z"/><path class="g" d="M473.87,279.47v85.83h-97.98V113.99h97.98v85.82h147.16V113.99h98.16v251.31h-98.16v-85.83h-147.16Z"/><polygon class="g" points="966.6 369.92 744.95 118.61 1086.45 118.61 1086.45 198.27 966.25 198.27 966.25 369.92 966.6 369.92"/></g></g></g></svg>